<svg width="198" height="90" viewBox="0 0 198 90" fill="none" xmlns="http://www.w3.org/2000/svg">
<path d="M139.959 23.2671C141.004 23.2671 142.043 24.0497 142.043 26.719C142.043 30.0293 138.336 34.4419 135.734 34.4419C135.734 31.1817 136.035 23.2671 139.959 23.2671ZM88.291 44.7477C85.3526 44.7477 83.4287 40.6547 83.4287 34.1776C83.4287 28.1617 85.4473 24.4315 88.291 24.4315C90.5869 24.4315 92.6968 27.576 92.6968 34.5369C92.6968 40.4025 90.847 44.7477 88.291 44.7477ZM156.027 22.2598C153.391 22.2598 152.341 24.321 152.682 26.5273C153.725 33.2982 148.862 44.9446 141.975 44.9446C137.599 44.9446 135.754 42.2149 135.754 36.3303C140.217 36.3303 146.252 31.8106 146.252 27.0179C146.252 23.9651 143.91 21.6154 139.53 21.6154C134.342 21.6154 128.698 27.2218 128.698 34.9187C128.698 35.7204 128.758 36.491 128.87 37.227C128.82 37.3773 127.563 41.2283 123.813 43.9823C124.688 42.7263 124.79 41.7622 124.79 40.4267C124.79 34.727 114.287 28.6955 114.287 23.3258C114.287 21.085 116.302 19.4506 116.302 17.3237C116.302 14.8963 114.979 13.7387 113.176 13.7387C110.759 13.7387 109.583 15.6358 109.583 18.5832C109.583 20.4043 110.38 22.5518 111.46 24.8376C108.441 34.2156 103.002 41.9868 101.267 41.9868C98.8904 41.9868 100.739 32.8973 100.739 28.3154C100.739 24.3434 99.8188 22.1009 97.1302 22.1009C94.7964 22.1009 93.4598 24.0152 93.4598 27.0214C93.4598 24.0152 90.4836 21.5877 86.8804 21.5877C80.3354 21.5877 76.1276 27.5846 76.1276 34.5369C76.1276 34.8134 76.1345 35.0898 76.1448 35.3593C74.7497 41.3251 68.8764 46.0538 63.3476 46.0538C55.0854 46.0538 51.0448 37.9111 51.0448 24.1897C51.0448 13.0926 56.0086 2.57602 63.5698 2.57602C69.7049 2.57602 70.933 9.14131 70.933 11.3303C70.933 14.4247 72.9051 15.3317 74.5775 15.3317C76.5892 15.3317 77.9533 13.5262 77.9533 11.764C77.9516 7.80925 73.6078 0 64.2381 0C50.4678 0 42.8205 11.3303 42.8205 24.8445C42.8205 25.1866 42.8291 25.5321 42.8446 25.8776C42.8101 35.5822 41.1394 44.1879 35.8948 44.1706C32.8858 44.1603 30.4573 41.2404 30.4573 33.3172C30.4573 30.3144 31.4494 27.6745 31.4494 26.0573C31.4494 24.8911 30.9671 22.2633 28.2199 22.2633C24.9905 22.2633 23.1579 25.4941 23.1579 30.9813C23.1579 39.1585 28.0753 47.0697 34.9665 47.0939C39.2724 47.1077 43.7436 43.8458 45.0079 35.1416C48.1632 42.5155 54.5532 48.6316 63.0101 48.6316C70.8503 48.6316 75.2819 43.3344 76.8527 39.8375C78.3167 44.6803 81.9027 47.4844 86.7081 47.4844C91.1122 47.4844 94.073 42.0939 94.073 38.6074C94.073 43.8251 95.742 47.0939 98.9438 47.0939C106.133 47.0939 111.875 30.4803 112.824 27.5777C114.926 31.6516 117.273 35.9329 117.273 39.4989C117.273 42.4809 116.18 43.7318 113.966 43.7318C112.497 43.7318 111.142 42.9975 111.142 41.5963C111.142 41.0919 110.766 40.8396 110.287 40.8396C109.624 40.8396 109.192 41.5825 109.192 42.4637C109.192 44.8824 111.445 48.0925 118.004 48.0925C122.843 48.0925 126.729 46.1955 129.962 40.8828C131.982 45.1278 136.245 47.5639 141.442 47.5639C147.832 47.5639 153.321 40.6755 153.984 34.34C153.906 37.0646 152.847 45.2988 152.847 45.8914C152.847 46.4616 153.174 47.0939 154.027 47.0939C156.922 47.0939 160.947 37.9751 160.947 31.2508C160.947 25.285 159.032 22.2598 156.025 22.2598M29.5393 17.9164C30.0419 17.9164 30.5395 17.8171 31.0038 17.6241C31.4682 17.4312 31.8901 17.1484 32.2454 16.7919C32.6008 16.4355 32.8827 16.0123 33.0751 15.5465C33.2674 15.0807 33.3664 14.5815 33.3664 14.0774C33.3664 13.5732 33.2674 13.074 33.0751 12.6083C32.8827 12.1425 32.6008 11.7193 32.2454 11.3628C31.8901 11.0063 31.4682 10.7236 31.0038 10.5306C30.5395 10.3377 30.0419 10.2384 29.5393 10.2384C28.5243 10.2384 27.5508 10.6429 26.8331 11.3628C26.1154 12.0828 25.7122 13.0592 25.7122 14.0774C25.7122 15.0955 26.1154 16.072 26.8331 16.7919C27.5508 17.5119 28.5243 17.9164 29.5393 17.9164ZM154.569 17.9164C155.072 17.9164 155.57 17.8171 156.034 17.6241C156.498 17.4312 156.92 17.1484 157.276 16.7919C157.631 16.4355 157.913 16.0123 158.105 15.5465C158.298 15.0807 158.397 14.5815 158.397 14.0774C158.397 13.5732 158.298 13.074 158.105 12.6083C157.913 12.1425 157.631 11.7193 157.276 11.3628C156.92 11.0063 156.498 10.7236 156.034 10.5306C155.57 10.3377 155.072 10.2384 154.569 10.2384C153.554 10.2384 152.581 10.6429 151.863 11.3628C151.146 12.0828 150.742 13.0592 150.742 14.0774C150.742 15.0955 151.146 16.072 151.863 16.7919C152.581 17.5119 153.554 17.9164 154.569 17.9164Z" fill="white"/>
<path d="M46.5126 62.2781L43.0665 81.9113H41.1053L44.5514 62.2781H46.5126Z" fill="white"/>
<path d="M57.4539 66.2946C59.0229 66.2946 60.2743 66.7253 61.2082 67.5866C62.1608 68.4292 62.6371 69.6651 62.6371 71.2942C62.6371 71.8934 62.5904 72.4364 62.497 72.9232L60.9 81.9113H58.9668L60.5078 73.1479C60.5825 72.7173 60.6199 72.2585 60.6199 71.7717C60.6199 70.5358 60.2837 69.5996 59.6112 68.9629C58.9388 68.3263 57.9956 68.0079 56.7815 68.0079C55.3059 68.0079 54.0451 68.4761 52.9991 69.4123C51.9531 70.3486 51.2714 71.7248 50.9538 73.5412V73.4569L49.4689 81.9113H47.5077L50.1974 66.5755H52.1586L51.6823 69.2157C52.336 68.2794 53.1672 67.5585 54.1759 67.053C55.1845 66.5474 56.2772 66.2946 57.4539 66.2946Z" fill="white"/>
<path d="M70.3367 82.136C68.7864 82.136 67.5256 81.7802 66.5543 81.0686C65.583 80.3384 65.0974 79.3459 65.0974 78.0914C65.0974 77.8667 65.1067 77.6981 65.1254 77.5858H67.0306C66.9559 78.4846 67.2174 79.2055 67.8151 79.7485C68.4128 80.2915 69.2907 80.5631 70.4487 80.5631C71.6255 80.5631 72.5687 80.3196 73.2785 79.8328C73.9883 79.3272 74.3431 78.6625 74.3431 77.8386C74.3431 77.3517 74.1937 76.9398 73.8949 76.6027C73.596 76.2657 73.2224 75.9942 72.7742 75.7882C72.3446 75.5635 71.7375 75.3107 70.953 75.0298C69.9818 74.674 69.1973 74.3464 68.5996 74.0468C68.0205 73.7284 67.5162 73.2977 67.0866 72.7547C66.6757 72.193 66.4702 71.4908 66.4702 70.6482C66.4702 69.8055 66.7131 69.0565 67.1987 68.4012C67.6843 67.7458 68.3474 67.2402 69.1879 66.8844C70.0471 66.5287 71.0184 66.3508 72.1017 66.3508C73.6147 66.3508 74.8475 66.7253 75.8 67.4743C76.7713 68.2233 77.257 69.2157 77.257 70.4515C77.257 70.7137 77.2476 70.9103 77.2289 71.0414H75.3798C75.3985 70.9665 75.4078 70.8448 75.4078 70.6762C75.4078 69.8523 75.0809 69.1876 74.4272 68.682C73.7921 68.1765 72.9703 67.9237 71.9617 67.9237C70.953 67.9237 70.1125 68.1671 69.4401 68.6539C68.7864 69.1221 68.4595 69.7587 68.4595 70.5639C68.4595 71.1069 68.6182 71.5657 68.9358 71.9402C69.2533 72.296 69.6456 72.5862 70.1125 72.8109C70.5795 73.0356 71.2052 73.2977 71.9897 73.5974C72.9236 73.9531 73.6707 74.2808 74.2311 74.5804C74.8101 74.88 75.2957 75.292 75.688 75.8163C76.0802 76.3406 76.2763 76.9959 76.2763 77.7824C76.2763 79.1119 75.7253 80.1698 74.6233 80.9563C73.5213 81.7427 72.0924 82.136 70.3367 82.136Z" fill="white"/>
<path d="M83.5823 69.946C84.2174 68.9161 85.1233 68.0641 86.3 67.39C87.4954 66.6972 88.8122 66.3508 90.2505 66.3508C92.0996 66.3508 93.5752 66.9032 94.6772 68.0079C95.7979 69.094 96.3583 70.5826 96.3583 72.4738C96.3583 73.0169 96.3022 73.5974 96.1902 74.2153C95.91 75.7882 95.3496 77.1738 94.5091 78.3722C93.6686 79.5706 92.632 80.4975 91.3992 81.1529C90.1851 81.8083 88.8776 82.136 87.4767 82.136C86.0385 82.136 84.8524 81.7989 83.9185 81.1248C82.9846 80.432 82.3589 79.5706 82.0414 78.5408L80.1922 89.1579H78.231L82.2095 66.5755H84.1707L83.5823 69.946ZM94.2009 74.2153C94.2943 73.6535 94.341 73.176 94.341 72.7828C94.341 71.3035 93.9021 70.1519 93.0242 69.328C92.165 68.4854 91.0256 68.0641 89.6061 68.0641C88.5601 68.0641 87.5608 68.3169 86.6082 68.8225C85.6556 69.328 84.8431 70.049 84.1707 70.9852C83.4983 71.9215 83.05 73.0075 82.8259 74.2434C82.7325 74.7677 82.6858 75.2358 82.6858 75.6477C82.6858 77.1083 83.1247 78.2692 84.0026 79.1306C84.8805 79.9919 86.0198 80.4226 87.4207 80.4226C88.5041 80.4226 89.5127 80.1792 90.4466 79.6923C91.3992 79.1868 92.2024 78.4659 92.8561 77.5296C93.5285 76.5746 93.9768 75.4699 94.2009 74.2153Z" fill="white"/>
<path d="M102.629 63.6824C102.274 63.6824 101.984 63.5795 101.76 63.3735C101.536 63.1488 101.424 62.8585 101.424 62.5028C101.424 62.0159 101.592 61.6133 101.928 61.295C102.264 60.958 102.666 60.7894 103.133 60.7894C103.488 60.7894 103.768 60.8924 103.974 61.0984C104.198 61.3044 104.31 61.5759 104.31 61.9129C104.31 62.3998 104.142 62.8211 103.805 63.1769C103.469 63.5139 103.077 63.6824 102.629 63.6824ZM103.077 66.5755L100.387 81.9113H98.4261L101.116 66.5755H103.077Z" fill="white"/>
<path d="M108.947 69.637C109.563 68.5697 110.367 67.7458 111.357 67.1653C112.347 66.5848 113.495 66.2946 114.803 66.2946L114.438 68.345H113.878C112.533 68.345 111.375 68.6914 110.404 69.3842C109.433 70.077 108.76 71.2193 108.387 72.8109L106.79 81.9113H104.829L107.518 66.5755H109.479L108.947 69.637Z" fill="white"/>
<path d="M115.428 74.2153C115.708 72.6424 116.268 71.2661 117.109 70.0864C117.949 68.888 118.977 67.9705 120.191 67.3338C121.423 66.6785 122.74 66.3508 124.141 66.3508C125.598 66.3508 126.793 66.6878 127.727 67.3619C128.661 68.036 129.268 68.8974 129.548 69.946L130.137 66.5755H132.098L129.408 81.9113H127.447L128.035 78.5127C127.4 79.5613 126.485 80.432 125.29 81.1248C124.113 81.7989 122.796 82.136 121.339 82.136C120.125 82.136 119.061 81.8832 118.145 81.3776C117.23 80.872 116.52 80.1605 116.016 79.2429C115.512 78.3067 115.26 77.2113 115.26 75.9567C115.26 75.4137 115.316 74.8332 115.428 74.2153ZM128.792 74.2434C128.885 73.7191 128.932 73.2509 128.932 72.839C128.932 71.3784 128.493 70.2175 127.615 69.3561C126.737 68.4948 125.598 68.0641 124.197 68.0641C123.114 68.0641 122.096 68.3075 121.143 68.7944C120.209 69.2812 119.415 69.9928 118.762 70.929C118.108 71.8466 117.669 72.942 117.445 74.2153C117.351 74.777 117.305 75.2545 117.305 75.6477C117.305 77.127 117.734 78.2973 118.594 79.1587C119.471 80.0013 120.611 80.4226 122.012 80.4226C123.058 80.4226 124.057 80.1698 125.01 79.6643C125.981 79.1587 126.793 78.4378 127.447 77.5015C128.12 76.5653 128.568 75.4792 128.792 74.2434Z" fill="white"/>
<path d="M137.136 77.7543C137.08 78.0914 137.052 78.3816 137.052 78.625C137.052 79.2242 137.21 79.6455 137.528 79.889C137.864 80.1137 138.406 80.226 139.153 80.226H140.946L140.638 81.9113H138.537C137.378 81.9113 136.51 81.6866 135.931 81.2372C135.352 80.7878 135.062 80.0481 135.062 79.0182C135.062 78.6063 135.1 78.185 135.174 77.7543L136.855 68.2326H134.726L135.034 66.5755H137.164L137.836 62.7275H139.797L139.125 66.5755H143.356L143.047 68.2326H138.817L137.136 77.7543Z" fill="white"/>
<path d="M148.075 63.6824C147.72 63.6824 147.431 63.5795 147.206 63.3735C146.982 63.1488 146.87 62.8585 146.87 62.5028C146.87 62.0159 147.038 61.6133 147.374 61.295C147.711 60.958 148.112 60.7894 148.579 60.7894C148.934 60.7894 149.214 60.8924 149.42 61.0984C149.644 61.3044 149.756 61.5759 149.756 61.9129C149.756 62.3998 149.588 62.8211 149.252 63.1769C148.915 63.5139 148.523 63.6824 148.075 63.6824ZM148.523 66.5755L145.834 81.9113H143.872L146.562 66.5755H148.523Z" fill="white"/>
<path d="M156.999 82.136C155.729 82.136 154.608 81.8832 153.637 81.3776C152.666 80.8533 151.909 80.123 151.367 79.1868C150.844 78.2318 150.583 77.1177 150.583 75.8444C150.583 74.1217 150.975 72.5394 151.76 71.0976C152.544 69.637 153.637 68.4854 155.038 67.6428C156.439 66.7814 157.998 66.3508 159.717 66.3508C160.987 66.3508 162.107 66.6129 163.079 67.1372C164.05 67.6428 164.806 68.3731 165.348 69.328C165.89 70.2643 166.161 71.3691 166.161 72.6424C166.161 74.3838 165.759 75.9754 164.956 77.4173C164.153 78.8591 163.051 80.0107 161.65 80.872C160.268 81.7147 158.717 82.136 156.999 82.136ZM157.223 80.4788C158.549 80.4788 159.735 80.123 160.781 79.4115C161.846 78.6999 162.668 77.7543 163.247 76.5746C163.845 75.395 164.143 74.1217 164.143 72.7547C164.143 71.2193 163.695 70.049 162.799 69.2438C161.921 68.4386 160.8 68.036 159.436 68.036C158.11 68.036 156.924 68.3918 155.878 69.1033C154.851 69.8149 154.048 70.7605 153.469 71.9402C152.89 73.1199 152.6 74.3932 152.6 75.7601C152.6 77.2768 153.039 78.4471 153.917 79.271C154.795 80.0762 155.897 80.4788 157.223 80.4788Z" fill="white"/>
<path d="M178.197 66.2946C179.766 66.2946 181.017 66.7253 181.951 67.5866C182.904 68.4292 183.38 69.6651 183.38 71.2942C183.38 71.8934 183.333 72.4364 183.24 72.9232L181.643 81.9113H179.71L181.251 73.1479C181.326 72.7173 181.363 72.2585 181.363 71.7717C181.363 70.5358 181.027 69.5996 180.354 68.9629C179.682 68.3263 178.739 68.0079 177.525 68.0079C176.049 68.0079 174.788 68.4761 173.742 69.4123C172.696 70.3486 172.014 71.7248 171.697 73.5412V73.4569L170.212 81.9113H168.251L170.94 66.5755H172.902L172.425 69.2157C173.079 68.2794 173.91 67.5585 174.919 67.053C175.928 66.5474 177.02 66.2946 178.197 66.2946Z" fill="white"/>
<path d="M191.08 82.136C189.529 82.136 188.269 81.7802 187.297 81.0686C186.326 80.3384 185.84 79.3459 185.84 78.0914C185.84 77.8667 185.85 77.6981 185.868 77.5858H187.774C187.699 78.4846 187.96 79.2055 188.558 79.7485C189.156 80.2915 190.034 80.5631 191.192 80.5631C192.369 80.5631 193.312 80.3196 194.022 79.8328C194.731 79.3272 195.086 78.6625 195.086 77.8386C195.086 77.3517 194.937 76.9398 194.638 76.6027C194.339 76.2657 193.965 75.9942 193.517 75.7882C193.088 75.5635 192.481 75.3107 191.696 75.0298C190.725 74.674 189.94 74.3464 189.343 74.0468C188.764 73.7284 188.259 73.2977 187.83 72.7547C187.419 72.193 187.213 71.4908 187.213 70.6482C187.213 69.8055 187.456 69.0565 187.942 68.4012C188.427 67.7458 189.09 67.2402 189.931 66.8844C190.79 66.5287 191.761 66.3508 192.845 66.3508C194.358 66.3508 195.591 66.7253 196.543 67.4743C197.514 68.2233 198 69.2157 198 70.4515C198 70.7137 197.991 70.9103 197.972 71.0414H196.123C196.142 70.9665 196.151 70.8448 196.151 70.6762C196.151 69.8523 195.824 69.1876 195.17 68.682C194.535 68.1765 193.713 67.9237 192.705 67.9237C191.696 67.9237 190.856 68.1671 190.183 68.6539C189.529 69.1221 189.203 69.7587 189.203 70.5639C189.203 71.1069 189.361 71.5657 189.679 71.9402C189.996 72.296 190.389 72.5862 190.856 72.8109C191.323 73.0356 191.948 73.2977 192.733 73.5974C193.667 73.9531 194.414 74.2808 194.974 74.5804C195.553 74.88 196.039 75.292 196.431 75.8163C196.823 76.3406 197.019 76.9959 197.019 77.7824C197.019 79.1119 196.468 80.1698 195.366 80.9563C194.264 81.7427 192.835 82.136 191.08 82.136Z" fill="white"/>
<g clip-path="url(#clip0_523_1393)">
<path d="M30.502 63.3069L9.81827 49.3193C8.5865 48.4863 7.06665 48.4052 5.7532 49.1026C4.4396 49.8 3.65546 51.1042 3.65546 52.5914L3.65546 80.5664C3.65546 82.0536 4.43967 83.3578 5.7532 84.0552C6.34609 84.3701 6.98105 84.5263 7.61257 84.5263C8.3801 84.5263 9.14258 84.2955 9.81835 83.8386L30.502 69.8511C31.5898 69.1154 32.2393 67.8923 32.2393 66.579C32.2393 65.2658 31.5898 64.0426 30.502 63.3069ZM29.7011 68.6668L9.01744 82.6543C8.2314 83.1858 7.26176 83.2377 6.4237 82.7926C5.5855 82.3476 5.08522 81.5154 5.08522 80.5665V52.5915C5.08522 51.6426 5.58557 50.8105 6.4237 50.3654C6.80199 50.1646 7.20714 50.0649 7.61012 50.0649C8.09981 50.0649 8.58629 50.212 9.01751 50.5037L29.7012 64.4912C30.4057 64.9676 30.8096 65.7286 30.8096 66.579C30.8096 67.4294 30.4055 68.1904 29.7011 68.6668Z" fill="white"/>
<path d="M25.4971 62.7703L24.3365 61.9837C24.0096 61.7623 23.5652 61.8476 23.3436 62.1744C23.1221 62.5013 23.2076 62.9457 23.5344 63.1672L24.695 63.9538C24.818 64.0371 24.9573 64.077 25.0954 64.077C25.3246 64.077 25.5496 63.9671 25.6879 63.7631C25.9094 63.4362 25.8239 62.9917 25.4971 62.7703Z" fill="white"/>
<path d="M22.1372 60.4934L8.19737 51.0465C7.87046 50.8251 7.42613 50.9104 7.20452 51.2372C6.98298 51.5641 7.06851 52.0085 7.39528 52.23L21.3351 61.6769C21.4581 61.7602 21.5975 61.8001 21.7356 61.8001C21.9647 61.8001 22.1897 61.6902 22.328 61.4862C22.5495 61.1593 22.464 60.7149 22.1372 60.4934Z" fill="white"/>
</g>
<defs>
<clipPath id="clip0_523_1393">
<rect width="35.8947" height="35.8947" fill="white" transform="translate(0 48.6316)"/>
</clipPath>
</defs>
</svg>
